<svg width="1799" height="389" viewBox="0 0 1799 389" fill="none" xmlns="http://www.w3.org/2000/svg">
<circle cx="194.5" cy="194.5" r="194.5" fill="#3B83F6"/>
<path d="M199.116 100.485C196.649 98.0723 192.712 98.0958 190.276 100.54L136.601 154.27C131.227 159.644 126.559 165.058 123.243 172.028C119.928 178.997 118.332 185.904 118.175 193.251C117.971 202.664 118.505 211.512 124.446 219.126C129.475 225.569 135.776 230.967 141.222 237.041C147.201 243.712 153.519 250.179 159.655 256.74C161.298 258.5 180.714 279.079 189.569 288.587C191.982 291.172 196.044 291.266 198.574 288.791L254.701 233.733C274.517 214.294 275.712 185.692 260.452 162.976C254.371 153.916 245.727 146.475 237.587 139.034C235.12 136.779 231.317 136.857 228.936 139.207L178.6 188.882C176.219 191.232 176.093 195.027 178.317 197.526L190.386 211.135C192.767 213.822 196.916 213.971 199.485 211.457L233.47 178.18C233.47 178.18 248.556 192.866 233.595 211.732L199.336 245.928C196.892 248.364 192.948 248.38 190.489 245.967L158.288 214.341C158.288 214.341 136.043 197.549 158.885 174.904C176.722 157.216 201.921 132.229 212.113 122.132C214.603 119.665 214.588 115.626 212.081 113.175L199.116 100.485Z" fill="white"/>
<path d="M1798.89 215.446C1798.89 217.434 1798.74 220.263 1798.44 223.933H1702.33C1704.01 232.955 1708.37 240.142 1715.4 245.494C1722.59 250.693 1731.46 253.292 1742.01 253.292C1755.47 253.292 1766.55 248.858 1775.27 239.989L1790.64 257.651C1785.13 264.226 1778.17 269.196 1769.76 272.56C1761.35 275.924 1751.87 277.606 1741.32 277.606C1727.87 277.606 1716.01 274.93 1705.77 269.578C1695.52 264.226 1687.57 256.809 1681.91 247.329C1676.41 237.695 1673.66 226.838 1673.66 214.758C1673.66 202.831 1676.33 192.127 1681.69 182.646C1687.19 173.012 1694.76 165.52 1704.39 160.168C1714.03 154.816 1724.88 152.14 1736.96 152.14C1748.89 152.14 1759.52 154.816 1768.85 160.168C1778.33 165.367 1785.67 172.783 1790.87 182.417C1796.22 191.897 1798.89 202.907 1798.89 215.446ZM1736.96 175.077C1727.79 175.077 1719.99 177.829 1713.57 183.334C1707.3 188.686 1703.48 195.873 1702.1 204.895H1771.6C1770.38 196.026 1766.63 188.839 1760.36 183.334C1754.09 177.829 1746.29 175.077 1736.96 175.077Z" fill="white"/>
<path d="M1614.92 276L1614.69 169.572L1561.94 257.65H1548.63L1495.88 170.948V276H1467.43V115.44H1491.98L1555.74 221.868L1618.36 115.44H1642.9L1643.13 276H1614.92Z" fill="white"/>
<path d="M1397.9 171.407C1406.16 158.562 1420.68 152.14 1441.48 152.14V179.435C1439.03 178.976 1436.82 178.747 1434.83 178.747C1423.67 178.747 1414.95 182.034 1408.68 188.61C1402.41 195.032 1399.28 204.36 1399.28 216.593V276H1370.6V153.516H1397.9V171.407Z" fill="white"/>
<path d="M1278.07 152.14C1296.11 152.14 1309.88 156.498 1319.36 165.214C1328.99 173.777 1333.81 186.775 1333.81 204.207V276H1306.74V261.091C1303.23 266.443 1298.18 270.572 1291.6 273.477C1285.18 276.23 1277.38 277.606 1268.21 277.606C1259.03 277.606 1251 276.077 1244.12 273.018C1237.24 269.807 1231.89 265.449 1228.07 259.944C1224.4 254.286 1222.56 247.94 1222.56 240.906C1222.56 229.897 1226.62 221.104 1234.72 214.529C1242.98 207.8 1255.9 204.436 1273.48 204.436H1305.14V202.601C1305.14 194.038 1302.54 187.463 1297.34 182.875C1292.29 178.288 1284.72 175.994 1274.63 175.994C1267.75 175.994 1260.94 177.065 1254.22 179.205C1247.64 181.346 1242.06 184.328 1237.47 188.151L1226.23 167.278C1232.66 162.385 1240.38 158.639 1249.4 156.039C1258.42 153.439 1267.98 152.14 1278.07 152.14ZM1274.17 256.733C1281.36 256.733 1287.7 255.127 1293.21 251.916C1298.87 248.552 1302.84 243.812 1305.14 237.695V223.474H1275.55C1259.03 223.474 1250.78 228.903 1250.78 239.76C1250.78 244.959 1252.84 249.087 1256.97 252.146C1261.1 255.204 1266.83 256.733 1274.17 256.733Z" fill="white"/>
<path d="M1207.1 215.446C1207.1 217.434 1206.95 220.263 1206.64 223.933H1110.53C1112.21 232.955 1116.57 240.142 1123.61 245.494C1130.79 250.693 1139.66 253.292 1150.21 253.292C1163.67 253.292 1174.76 248.858 1183.47 239.989L1198.84 257.651C1193.34 264.226 1186.38 269.196 1177.97 272.56C1169.56 275.924 1160.08 277.606 1149.53 277.606C1136.07 277.606 1124.22 274.93 1113.97 269.578C1103.73 264.226 1095.78 256.809 1090.12 247.329C1084.61 237.695 1081.86 226.838 1081.86 214.758C1081.86 202.831 1084.54 192.127 1089.89 182.646C1095.39 173.012 1102.96 165.52 1112.6 160.168C1122.23 154.816 1133.09 152.14 1145.17 152.14C1157.1 152.14 1167.72 154.816 1177.05 160.168C1186.53 165.367 1193.87 172.783 1199.07 182.417C1204.42 191.897 1207.1 202.907 1207.1 215.446ZM1145.17 175.077C1135.99 175.077 1128.19 177.829 1121.77 183.334C1115.5 188.686 1111.68 195.873 1110.3 204.895H1179.8C1178.58 196.026 1174.83 188.839 1168.56 183.334C1162.29 177.829 1154.5 175.077 1145.17 175.077Z" fill="white"/>
<path d="M1051.68 115.44V276H1027.14L938.603 167.278V276H909.014V115.44H933.557L1022.09 224.162V115.44H1051.68Z" fill="white"/>
<path d="M882.676 269.348C879.311 272.101 875.183 274.165 870.29 275.541C865.549 276.917 860.503 277.605 855.151 277.605C841.695 277.605 831.296 274.088 823.956 267.054C816.617 260.02 812.947 249.775 812.947 236.319V177.37H792.762V154.433H812.947V126.45H841.618V154.433H874.418V177.37H841.618V235.631C841.618 241.594 843.071 246.182 845.976 249.393C848.882 252.451 853.087 253.98 858.592 253.98C865.014 253.98 870.366 252.298 874.648 248.934L882.676 269.348Z" fill="white"/>
<path d="M781.507 215.446C781.507 217.434 781.354 220.263 781.048 223.933H684.941C686.623 232.955 690.981 240.142 698.016 245.494C705.202 250.693 714.072 253.292 724.623 253.292C738.079 253.292 749.165 248.858 757.881 239.989L773.249 257.651C767.744 264.226 760.787 269.196 752.377 272.56C743.966 275.924 734.486 277.606 723.934 277.606C710.478 277.606 698.627 274.93 688.382 269.578C678.137 264.226 670.185 256.809 664.527 247.329C659.022 237.695 656.27 226.838 656.27 214.758C656.27 202.831 658.946 192.127 664.298 182.646C669.803 173.012 677.372 165.52 687.006 160.168C696.639 154.816 707.496 152.14 719.576 152.14C731.504 152.14 742.131 154.816 751.459 160.168C760.94 165.367 768.28 172.783 773.479 182.417C778.831 191.897 781.507 202.907 781.507 215.446ZM719.576 175.077C710.402 175.077 702.603 177.829 696.181 183.334C689.911 188.686 686.088 195.873 684.712 204.895H754.212C752.988 196.026 749.242 188.839 742.972 183.334C736.703 177.829 728.904 175.077 719.576 175.077Z" fill="white"/>
<path d="M601.574 193.885H629.786V257.88C621.529 264.455 611.895 269.501 600.886 273.018C589.876 276.535 578.56 278.294 566.939 278.294C550.577 278.294 535.821 274.777 522.67 267.743C509.519 260.556 499.198 250.693 491.705 238.154C484.212 225.615 480.466 211.47 480.466 195.72C480.466 179.97 484.212 165.825 491.705 153.286C499.198 140.748 509.519 130.961 522.67 123.927C535.974 116.74 550.883 113.146 567.397 113.146C580.854 113.146 593.087 115.364 604.097 119.798C615.107 124.233 624.358 130.732 631.851 139.295L613.042 157.645C600.809 145.411 586.053 139.295 568.774 139.295C557.458 139.295 547.366 141.665 538.497 146.405C529.781 151.146 522.899 157.797 517.853 166.361C512.96 174.924 510.513 184.71 510.513 195.72C510.513 206.424 512.96 216.058 517.853 224.621C522.899 233.184 529.781 239.912 538.497 244.806C547.366 249.699 557.382 252.146 568.544 252.146C581.083 252.146 592.093 249.393 601.574 243.888V193.885Z" fill="white"/>
</svg>
